<?xml version="1.0" encoding="UTF-8" standalone="no"?>
<svg
   width="112"
   height="112"
   viewBox="0 0 112 112"
   fill="none"
   version="1.1"
   id="svg39"
   sodipodi:docname="flashbang.svg"
   inkscape:version="1.2.2 (732a01da63, 2022-12-09)"
   xmlns:inkscape="http://www.inkscape.org/namespaces/inkscape"
   xmlns:sodipodi="http://sodipodi.sourceforge.net/DTD/sodipodi-0.dtd"
   xmlns:xlink="http://www.w3.org/1999/xlink"
   xmlns="http://www.w3.org/2000/svg"
   xmlns:svg="http://www.w3.org/2000/svg">
  <sodipodi:namedview
     id="namedview41"
     pagecolor="#ffffff"
     bordercolor="#000000"
     borderopacity="0.25"
     inkscape:showpageshadow="2"
     inkscape:pageopacity="0.0"
     inkscape:pagecheckerboard="0"
     inkscape:deskcolor="#d1d1d1"
     showgrid="false"
     inkscape:zoom="7.8303571"
     inkscape:cx="46.485747"
     inkscape:cy="62.449259"
     inkscape:window-width="1920"
     inkscape:window-height="1057"
     inkscape:window-x="-8"
     inkscape:window-y="-8"
     inkscape:window-maximized="1"
     inkscape:current-layer="g6" />
  <path
     opacity="0.498"
     d="M103.951 48.4396L62.5821 7.07107C58.6768 3.16583 52.3452 3.16583 48.4399 7.07108L7.07138 48.4396C3.16613 52.3449 3.16614 58.6765 7.07139 62.5818L48.4399 103.95C52.3452 107.856 58.6769 107.856 62.5821 103.95L103.951 62.5818C107.856 58.6765 107.856 52.3449 103.951 48.4396Z"
     fill="black"
     id="path2" />
  <g
     filter="url(#filter0_d_126_429)"
     id="g6"
     style="fill:url(#linearGradient14125);fill-opacity:1;stroke:#ff2121;stroke-opacity:1;stroke-linejoin:miter;filter:url(#filter0_d_126_429)">
    <path
       d="M61.875 7.77818L103.244 49.1467C106.758 52.6615 106.758 58.36 103.244 61.8747L61.875 103.243C58.3603 106.758 52.6618 106.758 49.1471 103.243L7.77849 61.8747C4.26377 58.36 4.26376 52.6615 7.77848 49.1467L49.147 7.77818C52.6618 4.26346 58.3603 4.26346 61.875 7.77818Z"
       stroke="#4CE811"
       stroke-width="2"
       id="path4"
       style="fill:url(#linearGradient14125);fill-opacity:1;stroke:#ff2121;stroke-opacity:1;stroke-linejoin:miter" />
  </g>
  <path
     d="M83.9156 54.5848L82.8784 42.725L82.8852 42.7174L72.0134 33.5945L70.415 35.4998L80.4893 43.9536L81.3488 53.7753L76.3912 59.6835L76.2543 63.7153L83.9156 54.5848Z"
     fill="#3BFF00"
     id="path8"
     style="fill:#000000;fill-opacity:1;stroke:#ff2121;stroke-opacity:1;stroke-width:0.5;stroke-dasharray:none" />
  <path
     d="M77.6402 45.081L78.5678 45.8598L79.8916 44.2818L70.9889 36.8134L69.6651 38.3906L70.5927 39.1694L67.8133 42.4852L64.125 39.3904L59.3145 46.7823L61.2581 48.413L70.1582 55.8813L72.1018 57.5121L78.5465 51.4908L74.8582 48.396L77.6402 45.081Z"
     fill="#3BFF00"
     id="path10"
     style="fill:#000000;fill-opacity:1;stroke:#ff2121;stroke-opacity:1;stroke-width:0.5;stroke-dasharray:none" />
  <path
     d="M60.2886 49.5746L45.8521 66.7727L54.7517 74.2433L69.1882 57.0452L60.2886 49.5746Z"
     fill="#3BFF00"
     id="path12"
     style="fill:#000000;fill-opacity:1;stroke:#ff2121;stroke-opacity:1;stroke-width:0.5;stroke-dasharray:none" />
  <path
     d="M42.9316 66.3068L36.4869 72.328L50.9084 84.4292L55.7189 77.0374L42.9316 66.3068Z"
     fill="#3BFF00"
     id="path14"
     style="fill:#000000;fill-opacity:1;stroke:#ff2121;stroke-opacity:1;stroke-width:0.5;stroke-dasharray:none" />
  <path
     d="M44.6686 66.1061L44.7179 66.1469L44.7766 66.0771L44.6686 66.1061Z"
     fill="#3BFF00"
     id="path16" />
  <path
     d="M35.8748 71.1598L32.7748 71.9743L38.6023 63.3633L28.301 61.957L36.98 56.2316L28 50.99L38.2095 49.0217L31.9178 40.7431L42.1035 42.8313L39.4618 32.7748L48.0729 38.6023L49.4792 28.301L55.2071 36.9792L60.447 28L62.2571 37.389L62.6219 39.3726L60.5516 42.5541L59.1785 35.4343L55.3423 42.0049L51.1524 35.652L50.1228 43.1909L43.8218 38.9262L45.756 46.2849L38.3021 44.7545L42.9052 50.8131L35.4343 52.2577L42.0049 56.0939L35.652 60.2838L43.1909 61.3125L35.8748 71.1598Z"
     fill="#3BFF00"
     id="path18"
     style="fill:#000000;fill-opacity:1;stroke:#ff2121;stroke-opacity:1;stroke-width:0.5;stroke-dasharray:none" />
  <defs
     id="defs37">
    <linearGradient
       inkscape:collect="always"
       id="linearGradient13098">
      <stop
         style="stop-color:#000000;stop-opacity:1;"
         offset="0"
         id="stop13094" />
      <stop
         style="stop-color:#000000;stop-opacity:0;"
         offset="1"
         id="stop13096" />
    </linearGradient>
    <filter
       id="filter0_d_126_429"
       x="0.142456"
       y="0.142151"
       width="110.737"
       height="110.737"
       filterUnits="userSpaceOnUse"
       color-interpolation-filters="sRGB">
      <feFlood
         flood-opacity="0"
         result="BackgroundImageFix"
         id="feFlood20" />
      <feColorMatrix
         in="SourceAlpha"
         type="matrix"
         values="0 0 0 0 0 0 0 0 0 0 0 0 0 0 0 0 0 0 127 0"
         result="hardAlpha"
         id="feColorMatrix22" />
      <feOffset
         id="feOffset24" />
      <feGaussianBlur
         stdDeviation="0.0012592135"
         id="feGaussianBlur26" />
      <feComposite
         in2="hardAlpha"
         operator="out"
         id="feComposite28" />
      <feColorMatrix
         type="matrix"
         values="0 0 0 0 0.298039 0 0 0 0 0.909804 0 0 0 0 0.0666667 0 0 0 1 0"
         id="feColorMatrix30" />
      <feBlend
         mode="normal"
         in2="BackgroundImageFix"
         result="effect1_dropShadow_126_429"
         id="feBlend32" />
      <feBlend
         mode="normal"
         in="SourceGraphic"
         in2="effect1_dropShadow_126_429"
         result="shape"
         id="feBlend34" />
    </filter>
    <linearGradient
       inkscape:collect="always"
       xlink:href="#linearGradient13098"
       id="linearGradient14125"
       x1="0.142456"
       y1="55.510651"
       x2="110.87946"
       y2="55.510651"
       gradientUnits="userSpaceOnUse" />
  </defs>
</svg>
