<?xml version="1.0" encoding="UTF-8" standalone="no"?>
<svg
   width="112"
   height="112"
   viewBox="0 0 112 112"
   fill="none"
   version="1.1"
   id="svg39"
   sodipodi:docname="grenade.svg"
   inkscape:version="1.2.2 (732a01da63, 2022-12-09)"
   xmlns:inkscape="http://www.inkscape.org/namespaces/inkscape"
   xmlns:sodipodi="http://sodipodi.sourceforge.net/DTD/sodipodi-0.dtd"
   xmlns:xlink="http://www.w3.org/1999/xlink"
   xmlns="http://www.w3.org/2000/svg"
   xmlns:svg="http://www.w3.org/2000/svg">
  <sodipodi:namedview
     id="namedview41"
     pagecolor="#ffffff"
     bordercolor="#000000"
     borderopacity="0.25"
     inkscape:showpageshadow="2"
     inkscape:pageopacity="0.0"
     inkscape:pagecheckerboard="0"
     inkscape:deskcolor="#d1d1d1"
     showgrid="false"
     inkscape:zoom="3.9151786"
     inkscape:cx="40.86659"
     inkscape:cy="44.442417"
     inkscape:window-width="1366"
     inkscape:window-height="745"
     inkscape:window-x="-8"
     inkscape:window-y="-8"
     inkscape:window-maximized="1"
     inkscape:current-layer="svg39" />
  <path
     opacity="0.498"
     d="M103.951 48.4396L62.5821 7.07107C58.6768 3.16583 52.3452 3.16583 48.4399 7.07108L7.07138 48.4396C3.16613 52.3449 3.16614 58.6765 7.07139 62.5818L48.4399 103.95C52.3452 107.856 58.6769 107.856 62.5821 103.95L103.951 62.5818C107.856 58.6765 107.856 52.3449 103.951 48.4396Z"
     fill="black"
     id="path2" />
  <g
     filter="url(#filter0_d_126_429)"
     id="g6"
     style="fill:url(#linearGradient14125);fill-opacity:1;stroke:#ff2121;stroke-opacity:1;stroke-linejoin:miter;filter:url(#filter0_d_126_429)">
    <path
       d="M61.875 7.77818L103.244 49.1467C106.758 52.6615 106.758 58.36 103.244 61.8747L61.875 103.243C58.3603 106.758 52.6618 106.758 49.1471 103.243L7.77849 61.8747C4.26377 58.36 4.26376 52.6615 7.77848 49.1467L49.147 7.77818C52.6618 4.26346 58.3603 4.26346 61.875 7.77818Z"
       stroke="#4CE811"
       stroke-width="2"
       id="path4"
       style="fill:url(#linearGradient14125);fill-opacity:1;stroke:#ff2121;stroke-opacity:1;stroke-linejoin:miter" />
  </g>
  <path
     d="m 79.9156,50.5848 -1.0372,-11.8598 0.0068,-0.0076 -10.8718,-9.1229 -1.5984,1.9053 10.0743,8.4538 0.8595,9.8217 -4.9576,5.9082 -0.1369,4.0318 z"
     fill="#3BFF00"
     id="path8"
     style="fill:#000000;fill-opacity:1;stroke:#ff2121;stroke-width:0.5;stroke-dasharray:none;stroke-opacity:1" />
  <path
     d="m 73.6402,41.081 0.9276,0.7788 1.3238,-1.578 -8.9027,-7.4684 -1.3238,1.5772 0.9276,0.7788 -2.7794,3.3158 -3.6883,-3.0948 -4.8105,7.3919 1.9436,1.6307 8.9001,7.4683 1.9436,1.6308 6.4447,-6.0213 -3.6883,-3.0948 z"
     fill="#3BFF00"
     id="path10"
     style="fill:#000000;fill-opacity:1;stroke:#ff2121;stroke-width:0.5;stroke-dasharray:none;stroke-opacity:1" />
  <path
     d="M 56.2886,45.5746 41.8521,62.7727 50.7517,70.2433 65.1882,53.0452 Z"
     fill="#3BFF00"
     id="path12"
     style="fill:#000000;fill-opacity:1;stroke:#ff2121;stroke-width:0.5;stroke-dasharray:none;stroke-opacity:1" />
  <path
     d="m 38.9316,62.3068 -6.4447,6.0212 14.4215,12.1012 4.8105,-7.3918 z"
     fill="#3BFF00"
     id="path14"
     style="fill:#000000;fill-opacity:1;stroke:#ff2121;stroke-width:0.5;stroke-dasharray:none;stroke-opacity:1" />
  <path
     d="M44.6686 66.1061L44.7179 66.1469L44.7766 66.0771L44.6686 66.1061Z"
     fill="#3BFF00"
     id="path16" />
  <defs
     id="defs37">
    <linearGradient
       inkscape:collect="always"
       id="linearGradient13098">
      <stop
         style="stop-color:#000000;stop-opacity:1;"
         offset="0"
         id="stop13094" />
      <stop
         style="stop-color:#000000;stop-opacity:0;"
         offset="1"
         id="stop13096" />
    </linearGradient>
    <filter
       id="filter0_d_126_429"
       x="0.142456"
       y="0.142151"
       width="110.737"
       height="110.737"
       filterUnits="userSpaceOnUse"
       color-interpolation-filters="sRGB">
      <feFlood
         flood-opacity="0"
         result="BackgroundImageFix"
         id="feFlood20" />
      <feColorMatrix
         in="SourceAlpha"
         type="matrix"
         values="0 0 0 0 0 0 0 0 0 0 0 0 0 0 0 0 0 0 127 0"
         result="hardAlpha"
         id="feColorMatrix22" />
      <feOffset
         id="feOffset24" />
      <feGaussianBlur
         stdDeviation="0.0012592135"
         id="feGaussianBlur26" />
      <feComposite
         in2="hardAlpha"
         operator="out"
         id="feComposite28" />
      <feColorMatrix
         type="matrix"
         values="0 0 0 0 0.298039 0 0 0 0 0.909804 0 0 0 0 0.0666667 0 0 0 1 0"
         id="feColorMatrix30" />
      <feBlend
         mode="normal"
         in2="BackgroundImageFix"
         result="effect1_dropShadow_126_429"
         id="feBlend32" />
      <feBlend
         mode="normal"
         in="SourceGraphic"
         in2="effect1_dropShadow_126_429"
         result="shape"
         id="feBlend34" />
    </filter>
    <linearGradient
       inkscape:collect="always"
       xlink:href="#linearGradient13098"
       id="linearGradient14125"
       x1="0.142456"
       y1="55.510651"
       x2="110.87946"
       y2="55.510651"
       gradientUnits="userSpaceOnUse" />
  </defs>
</svg>
