<?xml version="1.0" encoding="UTF-8" standalone="no"?>
<svg
   width="112"
   height="112"
   viewBox="0 0 112 112"
   fill="none"
   version="1.1"
   id="svg54"
   sodipodi:docname="mine-used.svg"
   inkscape:version="1.2.2 (732a01da63, 2022-12-09)"
   xmlns:inkscape="http://www.inkscape.org/namespaces/inkscape"
   xmlns:sodipodi="http://sodipodi.sourceforge.net/DTD/sodipodi-0.dtd"
   xmlns:xlink="http://www.w3.org/1999/xlink"
   xmlns="http://www.w3.org/2000/svg"
   xmlns:svg="http://www.w3.org/2000/svg">
  <defs
     id="defs58">
    <linearGradient
       inkscape:collect="always"
       id="linearGradient922">
      <stop
         style="stop-color:#000000;stop-opacity:1;"
         offset="0"
         id="stop918" />
      <stop
         style="stop-color:#000000;stop-opacity:0;"
         offset="1"
         id="stop920" />
    </linearGradient>
    <linearGradient
       inkscape:collect="always"
       xlink:href="#linearGradient922"
       id="linearGradient924"
       x1="4.1486995"
       y1="55.510686"
       x2="106.87326"
       y2="55.510686"
       gradientUnits="userSpaceOnUse" />
  </defs>
  <sodipodi:namedview
     id="namedview56"
     pagecolor="#ffffff"
     bordercolor="#000000"
     borderopacity="0.25"
     inkscape:showpageshadow="2"
     inkscape:pageopacity="0.0"
     inkscape:pagecheckerboard="0"
     inkscape:deskcolor="#d1d1d1"
     showgrid="false"
     inkscape:zoom="7.8303571"
     inkscape:cx="53.254276"
     inkscape:cy="56.063854"
     inkscape:window-width="1920"
     inkscape:window-height="1057"
     inkscape:window-x="-8"
     inkscape:window-y="-8"
     inkscape:window-maximized="1"
     inkscape:current-layer="svg54" />
  <path
     opacity="0.498"
     d="M103.951 48.4396L62.5821 7.07107C58.6768 3.16583 52.3452 3.16583 48.4399 7.07108L7.07135 48.4396C3.1661 52.3449 3.16611 58.6765 7.07136 62.5818L48.4399 103.95C52.3452 107.856 58.6768 107.856 62.5821 103.95L103.951 62.5818C107.856 58.6765 107.856 52.3449 103.951 48.4396Z"
     fill="black"
     id="path2" />
  <path
     d="M61.8749 7.77818L103.244 49.1467C106.758 52.6615 106.758 58.36 103.244 61.8747L61.875 103.243C58.3602 106.758 52.6617 106.758 49.147 103.243L7.77846 61.8747C4.26374 58.36 4.26373 52.6615 7.77845 49.1467L49.147 7.77818C52.6617 4.26346 58.3602 4.26346 61.8749 7.77818Z"
     stroke="#556169"
     stroke-width="2"
     id="path4"
     style="fill:url(#linearGradient924);fill-opacity:1;stroke:#000000;stroke-opacity:1" />
  <path
     d="M55.6195 77.1493C53.1145 77.1493 50.6108 77.1467 48.1058 77.1519C47.8667 77.1519 47.6916 77.0762 47.5217 76.9063C45.8465 75.2154 44.1634 73.5323 42.483 71.8466C40.0185 69.373 37.5567 66.8955 35.0843 64.4297C34.7942 64.1409 34.7015 63.8286 34.7028 63.434C34.7132 60.6703 34.708 57.9065 34.708 55.1428C34.708 53.367 34.7054 51.5912 34.7093 49.8153C34.7093 49.5135 34.7394 49.2116 34.7394 48.9098C34.7394 48.6628 34.8426 48.4812 35.0125 48.3139C35.8331 47.509 36.6498 46.7001 37.4665 45.8899C39.6356 43.7391 41.8035 41.5869 43.9727 39.4373C45.1683 38.2521 46.3666 37.0682 47.5714 35.8922C47.6511 35.8151 47.7883 35.7628 47.9007 35.7589C48.3802 35.7432 48.8611 35.7485 49.342 35.7485C53.8162 35.7485 58.2917 35.7485 62.7659 35.7485C62.8313 35.7485 62.8953 35.7537 62.9606 35.7485C63.2285 35.7289 63.4297 35.8373 63.6179 36.0268C65.1612 37.5818 66.7109 39.1303 68.2607 40.6787C70.7788 43.1968 73.2942 45.7201 75.8227 48.2277C76.182 48.5831 76.3297 48.9803 76.3297 49.4651C76.3284 54.1288 76.331 58.7925 76.3284 63.4562C76.3284 63.6705 76.3153 63.89 76.267 64.0991C76.2395 64.2219 76.1494 64.3421 76.0592 64.4349C75.3562 65.151 74.648 65.8619 73.9384 66.5727C72.1129 68.4034 70.2861 70.2315 68.4593 72.061C66.8011 73.7231 65.1442 75.3866 63.4833 77.0461C63.4311 77.0984 63.3474 77.1467 63.2782 77.1467C60.7248 77.1519 58.1715 77.1506 55.6182 77.1506C55.6195 77.1506 55.6195 77.1493 55.6195 77.1493ZM39.5586 56.541C39.5572 56.541 39.5559 56.541 39.5546 56.541C39.5546 57.5015 39.5533 58.4632 39.5546 59.4236C39.5559 60.2011 39.5599 60.9786 39.5625 61.7561C39.5638 61.9809 39.6278 62.1756 39.7898 62.3416C40.1923 62.7558 40.5778 63.1857 40.9842 63.5947C43.3376 65.9586 45.6923 68.3198 48.0509 70.6797C48.5619 71.1907 49.0832 71.6925 49.6072 72.1903C49.6883 72.2674 49.8072 72.3354 49.9156 72.3497C50.1927 72.385 50.4749 72.4007 50.7545 72.402C53.087 72.4046 55.4182 72.4046 57.7507 72.3994C58.77 72.3968 59.7905 72.3824 60.8098 72.3641C60.9156 72.3628 61.0371 72.3197 61.1208 72.2557C61.4017 72.0387 61.6853 71.8192 61.9388 71.5709C63.9224 69.6226 65.8968 67.6678 67.8765 65.7155C68.9258 64.6806 69.9816 63.6535 71.0257 62.6134C71.1263 62.514 71.2008 62.3625 71.2296 62.2239C71.2766 61.9992 71.2949 61.764 71.2949 61.5327C71.3001 60.1345 71.3014 58.7363 71.2936 57.3381C71.291 56.9187 71.2505 56.4992 71.2309 56.0784C71.2243 55.9334 71.2283 55.787 71.2348 55.642C71.2531 55.2434 71.2884 54.8449 71.2923 54.4463C71.2962 54.0099 71.2648 53.5735 71.2622 53.1357C71.2596 52.6823 71.274 52.2301 71.2779 51.7767C71.2805 51.5389 71.2858 51.3011 71.2727 51.0659C71.2675 50.9665 71.24 50.8489 71.1773 50.7771C70.9656 50.5327 70.7382 50.3014 70.5109 50.0714C68.1601 47.6971 65.8093 45.3241 63.4572 42.9511C62.7424 42.2311 62.0276 41.5111 61.305 40.7989C61.2227 40.7179 61.0959 40.65 60.9823 40.6369C60.5641 40.5912 60.1433 40.5467 59.7239 40.5441C57.543 40.5363 55.362 40.5376 53.1811 40.5441C52.2155 40.5467 51.2498 40.5676 50.2841 40.5899C50.1744 40.5925 50.0437 40.6369 49.9627 40.7075C49.4544 41.157 48.946 41.6104 48.4573 42.0808C46.6031 43.8658 44.7554 45.6586 42.9051 47.4488C41.8623 48.4589 40.8208 49.469 39.782 50.4831C39.7075 50.5549 39.6252 50.6529 39.6121 50.747C39.5742 51.024 39.5559 51.305 39.5559 51.5833C39.5559 53.2363 39.5586 54.888 39.5586 56.541Z"
     fill="#556169"
     id="path6"
     style="fill:#000000;fill-opacity:1;stroke:#660000;stroke-opacity:1;stroke-width:0.5;stroke-dasharray:none" />
  <path
     d="M27.8621 59.2107C28.0228 59.1989 28.1849 59.1806 28.3456 59.178C28.7232 59.1715 29.0225 59.3622 29.276 59.6105C30.2129 60.5278 31.1407 61.4543 32.0697 62.3808C32.7924 63.1008 33.5071 63.8286 34.2311 64.546C35.9703 66.2709 37.7187 67.9879 39.4553 69.7167C41.9655 72.2138 44.4745 74.7123 46.9716 77.2212C48.7487 79.0075 50.5076 80.8121 52.2743 82.6101C52.3801 82.7173 52.4742 82.8362 52.5709 82.9525C52.844 83.2805 52.8976 83.6607 52.8205 84.0658C52.7839 84.2566 52.7382 84.4448 52.6898 84.6329C52.6349 84.8446 52.486 84.9505 52.269 84.9217C51.4785 84.8133 50.6801 84.744 49.9013 84.5767C48.8742 84.3572 47.8458 84.1325 46.8514 83.7823C46.4241 83.632 45.9876 83.5078 45.5643 83.3484C45.0298 83.1472 44.4993 82.9355 43.9779 82.7029C43.3494 82.422 42.7313 82.1149 42.1106 81.8169C41.878 81.7059 41.6506 81.5791 41.4141 81.4759C41.0992 81.3387 40.8561 81.1178 40.617 80.8787C39.258 79.5132 37.8938 78.1529 36.5309 76.7913C35.3927 75.6544 34.2572 74.5176 33.1164 73.3834C32.4239 72.6947 31.7182 72.0191 31.0348 71.3214C30.8349 71.1162 30.6676 70.8679 30.533 70.6131C30.1606 69.9075 29.8039 69.1927 29.4589 68.4727C29.276 68.0885 29.1192 67.6913 28.9702 67.2914C28.6853 66.5231 28.3887 65.7586 28.1457 64.9759C27.9209 64.2507 27.7393 63.5111 27.5772 62.7689C27.3669 61.7993 27.1944 60.8232 27.0101 59.8483C26.9931 59.7556 27.001 59.6549 27.0088 59.5596C27.0232 59.3949 27.1173 59.2878 27.2793 59.2603C27.4701 59.2276 27.6635 59.2094 27.8556 59.1845C27.8595 59.195 27.8608 59.2028 27.8621 59.2107ZM40.796 77.8223C40.9711 77.8001 41.1462 77.7557 41.3213 77.7583C41.631 77.7622 41.9198 77.6955 42.2021 77.5792C42.5693 77.4277 42.956 77.3114 43.1952 76.9507C43.4813 76.5208 43.5754 76.0321 43.1782 75.6492C42.3824 74.8822 41.6023 74.0981 40.813 73.3246C40.7255 73.2383 40.6209 73.1704 40.5229 73.0959C40.3936 72.9979 40.276 73.0266 40.1636 73.1312C39.5455 73.7022 38.9222 74.2654 38.312 74.8443C37.9983 75.1422 38.0036 75.2311 38.3054 75.5512C38.9457 76.2294 39.5965 76.8984 40.2315 77.5806C40.3909 77.753 40.5556 77.8563 40.796 77.8223ZM35.5169 68.6151C35.513 68.5995 35.5077 68.5851 35.5038 68.5694C35.3627 68.653 35.2163 68.7288 35.0817 68.8203C34.7237 69.0646 34.4597 69.3613 34.4232 69.8317C34.3866 70.3139 34.3003 70.7934 34.235 71.273C34.2088 71.4625 34.2624 71.6206 34.4009 71.7565C34.6727 72.0191 34.9328 72.2936 35.2072 72.5523C35.6698 72.9887 36.1402 73.4173 36.6067 73.8486C36.6916 73.927 36.7713 73.957 36.868 73.8538C37.1921 73.5075 37.5279 73.1717 37.8494 72.8228C38.163 72.4817 38.4648 72.1289 38.768 71.7787C38.8738 71.6572 38.8608 71.537 38.7458 71.4207C38.5785 71.2521 38.4139 71.0809 38.2518 70.9084C37.6599 70.2812 37.0588 69.6605 36.4799 69.0215C36.216 68.7301 35.8958 68.6204 35.5169 68.6151Z"
     fill="#556169"
     id="path8"
     style="fill:#000000;fill-opacity:1;stroke:#660000;stroke-opacity:1;stroke-width:0.5;stroke-dasharray:none" />
  <path
     d="M58.7765 84.9152C58.7111 84.9152 58.6471 84.9165 58.5818 84.9152C58.3819 84.9086 58.2982 84.842 58.2643 84.6421C58.2264 84.4238 58.2081 84.203 58.1649 83.9861C58.0735 83.5196 58.2264 83.1406 58.5556 82.814C59.1188 82.2547 59.6755 81.6902 60.2361 81.1283C63.7642 77.5962 67.2911 74.0655 70.8192 70.5347C72.8486 68.5041 74.8805 66.476 76.9086 64.4441C78.4374 62.9126 79.9611 61.3759 81.486 59.8405C81.746 59.5778 82.0218 59.3361 82.3746 59.208C82.4477 59.1819 82.5314 59.1636 82.6085 59.1688C82.8829 59.1845 83.156 59.212 83.4304 59.2329C83.9544 59.2747 84.0524 59.4824 83.9779 59.915C83.842 60.7055 83.6996 61.4948 83.5349 62.2788C83.386 62.9897 83.2148 63.6966 83.0332 64.4009C82.9443 64.7446 82.8123 65.0765 82.696 65.4137C82.5209 65.9167 82.3537 66.4238 82.1603 66.9203C81.78 67.8938 81.3671 68.8543 80.8666 69.7742C80.7255 70.0342 80.5883 70.2982 80.4628 70.5661C80.306 70.9019 80.0499 71.1567 79.7951 71.4115C78.0951 73.1142 76.3963 74.8207 74.6937 76.5208C73.4301 77.7831 72.1586 79.0375 70.8911 80.2959C70.814 80.3717 70.7343 80.4449 70.665 80.5272C70.1437 81.157 69.4158 81.4824 68.7285 81.877C67.8817 82.3631 66.9775 82.7147 66.0771 83.0727C65.3624 83.3576 64.6241 83.5862 63.8962 83.8397C63.0429 84.1377 62.1635 84.3298 61.2776 84.4944C60.4778 84.6434 59.6742 84.7714 58.8732 84.9073C58.8418 84.9126 58.8092 84.9126 58.7765 84.9152ZM67.5642 76.134C67.589 76.3209 67.6021 76.5103 67.6413 76.6946C67.6622 76.7887 67.7118 76.8893 67.7772 76.9599C68.1326 77.344 68.5677 77.5766 69.0917 77.6498C69.4694 77.7021 69.8431 77.7818 70.2168 77.8536C70.4181 77.8928 70.5696 77.8536 70.7173 77.689C71.3877 76.9429 72.0724 76.2085 72.7519 75.4702C72.9479 75.2572 72.9583 75.1409 72.7427 74.9514C72.0606 74.3556 71.3681 73.7715 70.6794 73.1821C70.5932 73.1076 70.5278 73.1194 70.4442 73.1978C70.0365 73.5833 69.621 73.9609 69.2133 74.3451C68.718 74.8103 68.2254 75.2794 67.7354 75.7498C67.6308 75.8531 67.5367 75.968 67.5642 76.134ZM76.7165 71.239C76.6577 70.6549 76.5989 70.0708 76.5374 69.4867C76.5335 69.4462 76.5178 69.3952 76.4891 69.3704C76.28 69.1862 76.0801 68.9875 75.8514 68.8333C75.6855 68.721 75.4725 68.6805 75.2921 68.5864C75.1811 68.5289 75.1053 68.5419 75.0203 68.623C74.1017 69.5037 73.1792 70.3805 72.2632 71.2652C72.0214 71.4978 72.0175 71.7643 72.2566 72.0061C72.8721 72.6268 73.4993 73.2357 74.1213 73.8499C74.2285 73.9557 74.3226 73.9544 74.4375 73.8394C75.1157 73.1599 75.7965 72.4817 76.4852 71.8127C76.6498 71.648 76.7531 71.4782 76.7165 71.239Z"
     fill="#556169"
     id="path10"
     style="fill:#000000;fill-opacity:1;stroke:#660000;stroke-opacity:1;stroke-width:0.5;stroke-dasharray:none" />
  <path
     d="M28.236 53.7969C27.8897 53.7708 27.614 53.7538 27.3409 53.7263C27.1409 53.7067 27.0508 53.627 27.0442 53.4297C27.0377 53.2664 27.0743 53.1017 27.0926 52.9384C27.1161 52.7189 27.1305 52.498 27.1644 52.2811C27.2324 51.8447 27.3069 51.4108 27.3853 50.9757C27.448 50.632 27.516 50.2897 27.5931 49.9499C27.6793 49.5723 27.7629 49.192 27.874 48.8209C28.0413 48.2642 28.2268 47.7128 28.4137 47.1627C28.5809 46.6687 28.743 46.1722 28.9416 45.6913C29.2134 45.034 29.5139 44.3885 29.8132 43.7443C30.0079 43.3235 30.2104 42.9041 30.4352 42.5003C30.5724 42.2533 30.7344 42.009 30.9304 41.809C32.0281 40.6931 33.1388 39.5915 34.2456 38.4834C36.0201 36.7089 37.7946 34.9344 39.5692 33.1585C39.9703 32.7574 40.3519 32.3353 40.7792 31.9655C41.085 31.7002 41.4378 31.4781 41.7945 31.2834C42.3381 30.9868 42.8961 30.7097 43.4632 30.4602C44.2485 30.1152 45.0404 29.7846 45.8427 29.4853C46.402 29.2763 46.9822 29.1234 47.5571 28.9587C48.0746 28.8111 48.5947 28.6647 49.12 28.5484C49.7825 28.4021 50.4515 28.2805 51.1193 28.159C51.3257 28.1211 51.5374 28.1159 51.7465 28.0924C51.8902 28.0767 52.0366 28.0649 52.1777 28.0336C52.4717 27.9669 52.5998 28.0362 52.6847 28.3237C52.7292 28.4739 52.7932 28.619 52.8232 28.7706C52.9291 29.3155 52.7775 29.7846 52.3842 30.174C51.855 30.698 51.3231 31.2194 50.7952 31.7434C48.6417 33.8785 46.4896 36.015 44.3361 38.1502C42.2584 40.2096 40.1794 42.2664 38.1017 44.3258C35.5562 46.8478 33.012 49.371 30.4652 51.8917C29.9125 52.4379 29.3519 52.9763 28.79 53.512C28.6162 53.6767 28.4372 53.8453 28.236 53.7969ZM40.8249 35.1474C40.7204 35.2245 40.5923 35.3029 40.4852 35.4022C39.9115 35.9327 39.3405 36.4672 38.7734 37.0055C38.5551 37.2133 38.35 37.4354 38.1396 37.651C38.0521 37.7399 38.0468 37.8209 38.1448 37.9124C38.3421 38.0953 38.529 38.29 38.7289 38.4717C39.1745 38.8781 39.6293 39.2766 40.0736 39.6843C40.3663 39.9522 40.3702 39.96 40.6577 39.683C41.2718 39.0924 41.8821 38.4978 42.4923 37.9032C42.751 37.651 43.0058 37.3949 43.2593 37.1388C43.3417 37.0552 43.3913 36.9572 43.3521 36.8317C43.2672 36.5586 43.1914 36.2842 43.1025 36.0124C43.0163 35.7485 42.8177 35.5903 42.5602 35.5315C42.116 35.4296 41.6651 35.3538 41.2182 35.2624C41.0993 35.2349 40.983 35.1931 40.8249 35.1474ZM36.778 39.2047C36.7689 39.2178 36.761 39.2322 36.7519 39.2453C36.5572 39.2191 36.4383 39.3524 36.322 39.4661C35.679 40.0972 35.044 40.7349 34.405 41.3713C34.2717 41.5046 34.2338 41.6588 34.2652 41.8443C34.358 42.3905 34.452 42.938 34.5239 43.4882C34.5749 43.8802 34.7983 44.1036 35.1498 44.2304C35.2805 44.2774 35.4125 44.3245 35.5405 44.3781C35.7692 44.4761 35.8698 44.4643 36.0475 44.284C36.5663 43.7574 37.0812 43.2281 37.5973 42.6989C37.9514 42.3356 38.3056 41.9724 38.6531 41.6039C38.8309 41.4157 38.8269 41.3739 38.6636 41.1818C38.499 40.9897 38.3317 40.7989 38.1644 40.6082C37.8103 40.2083 37.4601 39.8045 37.0981 39.4138C37.0132 39.3237 36.8852 39.274 36.778 39.2047Z"
     fill="#556169"
     id="path12"
     style="fill:#000000;fill-opacity:1;stroke:#660000;stroke-opacity:1;stroke-width:0.5;stroke-dasharray:none" />
  <path
     d="M82.9025 53.81C82.5628 53.8596 82.3654 53.6506 82.1511 53.4376C80.5569 51.8421 78.9549 50.2544 77.3542 48.6641C75.7312 47.0503 74.1083 45.4378 72.4827 43.8253C70.7278 42.0848 68.9689 40.3481 67.2153 38.6063C65.297 36.7011 63.3814 34.7919 61.4644 32.8841C60.5118 31.9355 59.5671 30.9802 58.604 30.042C58.229 29.6761 58.0852 29.2619 58.1793 28.7549C58.2055 28.6177 58.212 28.4753 58.2447 28.3394C58.3126 28.048 58.4864 27.9486 58.7713 28.0244C58.8079 28.0349 58.8431 28.0506 58.8797 28.0558C59.4116 28.1329 59.946 28.2035 60.4766 28.2871C60.8006 28.338 61.1221 28.4047 61.4435 28.4713C61.8434 28.555 62.2445 28.6373 62.6405 28.7366C62.911 28.8045 63.1736 28.9052 63.4402 28.9849C63.8636 29.1116 64.2909 29.2214 64.7103 29.3599C65.0984 29.488 65.4813 29.6356 65.8602 29.7898C66.4849 30.042 67.1147 30.2851 67.7236 30.5725C68.2934 30.8404 68.8265 31.188 69.3975 31.452C70.0849 31.7695 70.537 32.3471 71.0492 32.8567C73.1439 34.937 75.2255 37.0277 77.3124 39.1146C78.2009 40.0032 79.0869 40.8956 79.982 41.779C80.31 42.1017 80.4929 42.5108 80.7007 42.9054C80.8614 43.2112 81.0326 43.5117 81.1842 43.8214C81.3815 44.2278 81.5736 44.6394 81.7513 45.0549C81.98 45.5907 82.2139 46.1251 82.4073 46.674C82.6137 47.2581 82.7705 47.8592 82.96 48.4498C83.2632 49.3906 83.4461 50.3589 83.6643 51.3207C83.7453 51.6787 83.7728 52.0302 83.7963 52.3909C83.8068 52.5503 83.8643 52.7071 83.8969 52.8652C83.9191 52.9711 83.9427 53.0769 83.9518 53.1841C83.9766 53.4898 83.8107 53.7094 83.5101 53.7551C83.3115 53.7851 83.1064 53.7917 82.9025 53.81ZM76.7727 41.6091C76.7452 41.5542 76.7165 41.4471 76.6498 41.3739C76.4917 41.1975 76.3166 41.0368 76.1468 40.8708C75.6293 40.3664 75.1131 39.8607 74.5931 39.3589C74.3631 39.1368 74.0847 39.1224 73.8809 39.3433C73.3033 39.9692 72.7388 40.6056 72.1691 41.2393C72.0946 41.3216 72.0842 41.4105 72.1639 41.4993C72.2109 41.5516 72.2514 41.6091 72.2998 41.6601C72.7702 42.1658 73.2393 42.6715 73.7123 43.1733C74.0743 43.5574 74.4428 43.9364 74.8061 44.3206C74.9054 44.4251 75.0099 44.4891 75.1628 44.4473C75.432 44.3741 75.7038 44.3062 75.9743 44.2409C76.2879 44.1651 76.5061 43.9743 76.5492 43.6581C76.6407 42.9942 76.6969 42.3278 76.7727 41.6091ZM67.5472 36.9219C67.5916 37.0003 67.6439 37.1454 67.7419 37.2486C67.9536 37.4707 68.1875 37.672 68.4136 37.8797C69.0865 38.503 69.7595 39.1263 70.4351 39.747C70.601 39.8986 70.6298 39.8973 70.7983 39.7431C71.1485 39.423 71.5001 39.1028 71.8476 38.7801C72.0972 38.5488 72.3494 38.3201 72.5859 38.077C72.846 37.8092 72.8499 37.6955 72.5899 37.4381C71.9169 36.769 71.2361 36.1052 70.5488 35.4505C70.4612 35.3669 70.307 35.3016 70.1894 35.3107C69.6197 35.3525 69.0513 35.4192 68.4828 35.4819C68.2921 35.5028 68.1248 35.5668 67.9876 35.7223C67.704 36.0464 67.6152 36.441 67.5472 36.9219Z"
     fill="#556169"
     id="path14"
     style="fill:#000000;fill-opacity:1;stroke:#660000;stroke-opacity:1;stroke-width:0.5;stroke-dasharray:none" />
  <path
     d="M48.7108 78.0562C48.7683 78.0496 48.8559 78.03 48.9447 78.03C52.1893 78.0261 55.4326 78.0235 58.6772 78.0222C59.865 78.0209 61.0528 78.0209 62.2393 78.0248C62.2968 78.0248 62.3556 78.0601 62.4131 78.0784C62.3896 78.1228 62.3752 78.1751 62.3412 78.2091C61.143 79.4152 59.9447 80.6213 58.7425 81.8222C58.4106 82.1541 58.0852 82.4964 57.7207 82.7904C57.1927 83.2151 56.5917 83.5 55.9043 83.5797C55.2457 83.6555 54.595 83.5954 54.0148 83.2883C53.6476 83.0936 53.3327 82.7813 53.0321 82.482C51.7581 81.2158 50.4958 79.9352 49.2335 78.656C49.0493 78.4717 48.8885 78.2626 48.7108 78.0562ZM55.5005 78.7487V78.7474C55.004 78.7474 54.5087 78.7514 54.0122 78.7448C53.858 78.7422 53.7469 78.7971 53.6437 78.9069C53.3379 79.2335 53.3275 79.3289 53.6398 79.6465C54.1389 80.1535 54.6473 80.6513 55.1582 81.1466C55.3895 81.37 55.6404 81.3583 55.8651 81.1335C55.937 81.0616 56.0115 80.9898 56.082 80.9166C56.5289 80.4566 56.9758 79.9967 57.4201 79.5328C57.5168 79.4308 57.6148 79.3185 57.5717 79.1617C57.522 78.9826 57.1954 78.75 57.0033 78.7487C56.5041 78.7474 56.0023 78.7487 55.5005 78.7487Z"
     fill="#556169"
     id="path16"
     style="fill:#000000;fill-opacity:1;stroke:#660000;stroke-opacity:1;stroke-width:0.5;stroke-dasharray:none" />
  <path
     d="M48.6559 34.8089C48.6794 34.775 48.6977 34.7371 48.7264 34.7083C50.011 33.4369 51.2955 32.1667 52.5813 30.8966C53.0033 30.4798 53.428 30.059 53.9468 29.7637C54.2042 29.6173 54.5035 29.5376 54.7909 29.4514C54.9856 29.3926 55.1934 29.3468 55.3946 29.3468C55.6285 29.3481 55.8651 29.3939 56.0964 29.4422C56.4988 29.5259 56.8752 29.6761 57.2345 29.8852C57.9467 30.2994 58.4811 30.9097 59.0522 31.4807C60.0518 32.4804 61.0423 33.4878 62.038 34.4914C62.1099 34.5646 62.1935 34.6247 62.2641 34.6992C62.2941 34.7305 62.3046 34.7802 62.3229 34.822C62.285 34.8351 62.2471 34.8586 62.2079 34.8599C62.0354 34.8677 61.8629 34.873 61.6904 34.873C57.7023 34.8717 53.7142 34.8703 49.7261 34.8664C49.5 34.8664 49.274 34.8403 49.0479 34.8351C48.9238 34.8325 48.7983 34.8481 48.6742 34.856C48.669 34.8403 48.6624 34.8246 48.6559 34.8089ZM55.5096 34.1765C55.5096 34.1739 55.5096 34.1699 55.5096 34.1673C55.5319 34.1673 55.5528 34.1673 55.575 34.1673C56.0715 34.1686 56.5681 34.1712 57.0646 34.1686C57.194 34.1686 57.4632 33.9896 57.458 33.8785C57.4527 33.7688 57.3691 33.6629 57.3194 33.5558C57.3155 33.5466 57.3051 33.5401 57.2972 33.5323C56.8072 33.0305 56.3172 32.53 55.8272 32.0269C55.4796 31.6702 55.4365 31.6636 55.0836 32.0282C54.8066 32.3144 54.5505 32.6215 54.2787 32.9142C54.0435 33.1664 53.7952 33.4068 53.5626 33.6616C53.5208 33.7074 53.4921 33.8276 53.5208 33.8655C53.6593 34.0497 53.8279 34.1856 54.0879 34.1791C54.5597 34.1673 55.0353 34.1765 55.5096 34.1765Z"
     fill="#556169"
     id="path18"
     style="fill:#000000;fill-opacity:1;stroke:#660000;stroke-opacity:1;stroke-width:0.5;stroke-dasharray:none" />
  <path
     d="M33.8364 49.4821C33.8364 54.0569 33.8364 58.5795 33.8364 63.1465C33.7567 63.0851 33.707 63.055 33.6678 63.0158C32.4042 61.7392 31.1406 60.4625 29.877 59.1858C29.6797 58.9859 29.4798 58.7899 29.2798 58.5926C29.2537 58.5664 29.2276 58.5338 29.1962 58.5181C28.7454 58.2946 28.5964 57.8752 28.505 57.4296C28.4344 57.0872 28.3782 56.7423 28.339 56.396C28.3246 56.2745 28.3769 56.1438 28.403 56.017C28.4187 55.9373 28.4592 55.8589 28.4553 55.7818C28.4305 55.365 28.6905 55.071 28.8695 54.7364C29.3373 53.8622 30.0652 53.2141 30.7499 52.5294C31.7103 51.5676 32.6799 50.615 33.6456 49.6585C33.6953 49.6076 33.7475 49.5631 33.8364 49.4821ZM33.1308 56.5162C33.1308 56.5162 33.1294 56.5162 33.1308 56.5162C33.1308 55.9883 33.1308 55.4604 33.1294 54.9311C33.1294 54.8841 33.1268 54.8318 33.1098 54.7887C32.9687 54.449 32.7806 54.4111 32.527 54.6685C31.9599 55.2448 31.3928 55.821 30.827 56.3986C30.6676 56.5606 30.661 56.5802 30.8205 56.737C31.3288 57.2349 31.8423 57.7262 32.3546 58.2189C32.4591 58.3195 32.5649 58.4201 32.6825 58.505C32.7257 58.5364 32.8237 58.5547 32.855 58.5299C32.9975 58.4096 33.1386 58.2894 33.1347 58.066C33.1242 57.5511 33.1308 57.0337 33.1308 56.5162Z"
     fill="#556169"
     id="path20"
     style="fill:#000000;fill-opacity:1;stroke:#660000;stroke-opacity:1;stroke-width:0.5;stroke-dasharray:none" />
  <path
     d="M77.2419 49.6833C77.3085 49.7382 77.3504 49.7696 77.3856 49.8048C78.6388 51.0606 79.8919 52.319 81.1464 53.5734C81.5998 54.0256 81.9984 54.5195 82.3015 55.084C82.3838 55.2369 82.4165 55.4159 82.4649 55.5858C82.4949 55.6942 82.5041 55.8092 82.5341 55.9164C82.6491 56.3162 82.6556 56.7135 82.5341 57.112C82.5158 57.1734 82.4962 57.2375 82.4923 57.3015C82.4636 57.7706 82.2153 58.1352 81.9265 58.4736C80.7478 59.8535 79.3915 61.0623 78.1331 62.3651C77.8717 62.6369 77.6117 62.91 77.3504 63.1831C77.3334 63.2014 77.3085 63.2131 77.2576 63.251C77.2393 63.1556 77.2118 63.0824 77.2105 63.008C77.2053 61.5836 77.2014 60.1593 77.2014 58.735C77.2001 55.9347 77.2014 53.1344 77.2014 50.3328C77.2014 50.176 77.204 50.0191 77.2092 49.8636C77.2105 49.8153 77.2262 49.7656 77.2419 49.6833ZM78.2141 54.4881C78.1827 54.5025 78.1553 54.509 78.137 54.526C77.9854 54.6619 77.8652 54.8096 77.8652 55.0343C77.8613 55.9896 77.8521 56.9435 77.8378 57.8987C77.8351 58.0921 77.8809 58.2567 77.9985 58.4096C78.1592 58.6174 78.1893 58.6304 78.3735 58.4501C78.9472 57.8869 79.5169 57.3198 80.084 56.7488C80.2604 56.5711 80.2604 56.5318 80.0827 56.3489C79.5104 55.7622 78.9328 55.1794 78.3565 54.5966C78.3147 54.5535 78.2624 54.5234 78.2141 54.4881Z"
     fill="#556169"
     id="path22"
     style="fill:#000000;fill-opacity:1;stroke:#660000;stroke-opacity:1;stroke-width:0.5;stroke-dasharray:none" />
  <path
     d="M40.2942 56.3529C40.2942 54.7717 40.2942 53.1893 40.2942 51.6082C40.2942 51.3873 40.289 51.1652 40.3086 50.9456C40.3164 50.8581 40.3674 50.7588 40.4301 50.6961C40.8809 50.2387 41.337 49.7866 41.7969 49.3384C43.9909 47.1967 46.1862 45.0576 48.3802 42.9158C48.8559 42.452 49.3302 41.9894 49.8045 41.5242C49.9561 41.3752 50.1456 41.353 50.3429 41.353C51.4275 41.3543 52.5134 41.3556 53.5979 41.3556C55.9892 41.3556 58.3805 41.3569 60.7718 41.353C60.9992 41.353 61.1769 41.4314 61.3337 41.5882C63.2716 43.5431 65.2095 45.4979 67.1473 47.4515C68.147 48.459 69.1453 49.469 70.1489 50.4713C70.456 50.7771 70.6102 51.1221 70.6036 51.5676C70.5827 52.8848 70.5879 54.2007 70.5853 55.5179C70.5827 56.8886 70.5827 58.2594 70.5801 59.6301C70.5775 60.4181 70.5762 61.206 70.5605 61.9927C70.5579 62.1064 70.5108 62.2449 70.4351 62.3259C70.0822 62.7048 69.7151 63.0707 69.3479 63.4353C66.7383 66.0226 64.1301 68.6125 61.5128 71.192C60.8842 71.8127 61.0593 71.6964 60.2831 71.6977C56.9954 71.7055 53.7077 71.6964 50.4213 71.7068C50.0463 71.7081 49.7732 71.5945 49.5105 71.3266C46.6841 68.4361 43.8485 65.5561 41.0155 62.6722C40.8339 62.4879 40.6575 62.2984 40.4772 62.1129C40.3504 61.9822 40.2929 61.8346 40.2942 61.6477C40.2994 59.8823 40.2968 58.1182 40.2968 56.3529C40.2955 56.3529 40.2942 56.3529 40.2942 56.3529ZM69.5818 56.3097C69.5792 56.3097 69.5765 56.3097 69.5739 56.3097C69.5739 54.7116 69.5713 53.1148 69.5765 51.5167C69.5778 51.3285 69.5203 51.1887 69.3884 51.058C68.6174 50.2949 67.853 49.5252 67.0846 48.7595C64.9756 46.6544 62.8652 44.5519 60.7614 42.4428C60.5575 42.239 60.3524 42.1004 60.0518 42.1553C59.9734 42.1697 59.8898 42.1527 59.8101 42.1527C57.0843 42.154 54.3585 42.1553 51.6326 42.1566C51.3033 42.1566 50.974 42.1736 50.6461 42.1606C50.4801 42.154 50.352 42.1932 50.2384 42.3069C49.9914 42.5565 49.7405 42.8008 49.4948 43.0517C47.6471 44.9282 45.8034 46.8073 43.9517 48.6798C43.2056 49.4351 42.4477 50.1812 41.6885 50.9247C41.5304 51.0789 41.4507 51.2423 41.4611 51.4657C41.4755 51.7663 41.465 52.0681 41.4676 52.37C41.4768 53.2337 41.4951 54.0961 41.4951 54.9599C41.4964 55.8563 41.4768 56.7514 41.4742 57.6478C41.4703 58.7324 41.4663 59.8183 41.4807 60.9029C41.4859 61.3079 41.5853 61.6934 41.9159 61.977C42.0426 62.0854 42.1576 62.2083 42.2752 62.3272C43.8328 63.8992 45.3891 65.4712 46.9467 67.0431C47.9986 68.1055 49.0492 69.1692 50.109 70.2224C50.2371 70.3492 50.4135 70.4498 50.5846 70.502C50.7597 70.5569 50.9584 70.5491 51.1465 70.5491C53.3915 70.553 55.6377 70.5556 57.8827 70.5517C58.6327 70.5504 59.3828 70.5151 60.1316 70.519C60.4478 70.5203 60.6647 70.3844 60.8764 70.1701C62.4614 68.5642 64.053 66.966 65.6407 65.364C66.8978 64.0952 68.1535 62.825 69.4119 61.5575C69.5347 61.4334 69.5818 61.2949 69.5805 61.1224C69.5792 59.5164 69.5818 57.9131 69.5818 56.3097Z"
     fill="#556169"
     id="path24"
     style="fill:#000000;fill-opacity:1;stroke:#660000;stroke-opacity:1;stroke-width:0.5;stroke-dasharray:none" />
  <path
     d="M42.5013 76.0647C42.47 76.2411 42.4595 76.3718 42.4229 76.4946C42.3746 76.6567 42.2779 76.786 42.0949 76.8135C41.6702 76.8762 41.2443 76.9285 40.8196 76.9964C40.6797 77.0186 40.5765 76.9781 40.4877 76.8814C40.0264 76.3757 39.5664 75.87 39.1038 75.3643C39.0202 75.2729 39.0137 75.1879 39.1051 75.0991C39.4397 74.7776 39.7664 74.4496 40.1074 74.136C40.3387 73.923 40.3766 73.9204 40.6013 74.1321C41.0443 74.5502 41.4742 74.9815 41.9094 75.4075C42.0518 75.5473 42.2034 75.678 42.338 75.8243C42.4138 75.904 42.4621 76.0046 42.5013 76.0647Z"
     fill="#556169"
     id="path26"
     style="fill:#000000;fill-opacity:1;stroke:#660000;stroke-opacity:1;stroke-width:0.5;stroke-dasharray:none" />
  <path
     d="M35.0791 71.3213C35.1314 70.8692 35.1771 70.4733 35.2228 70.0773C35.2346 69.9754 35.2411 69.8735 35.2542 69.7729C35.2908 69.4749 35.5038 69.3338 35.7756 69.4462C35.9063 69.4997 36.0395 69.5782 36.1375 69.6788C36.7321 70.2955 37.3162 70.9215 37.9068 71.5422C37.9761 71.6153 37.963 71.6663 37.9055 71.7342C37.6194 72.0701 37.345 72.4177 37.0457 72.7417C36.9503 72.845 36.7961 72.8998 36.6602 72.956C36.6184 72.973 36.5309 72.9351 36.4917 72.8959C36.0591 72.4529 35.6292 72.006 35.2059 71.5526C35.1366 71.4807 35.1052 71.3723 35.0791 71.3213Z"
     fill="#556169"
     id="path28"
     style="fill:#000000;fill-opacity:1;stroke:#660000;stroke-opacity:1;stroke-width:0.5;stroke-dasharray:none" />
  <path
     d="M71.9496 75.2219C71.6804 75.512 71.4086 75.8099 71.1329 76.1026C70.9003 76.3496 70.6546 76.5861 70.4259 76.837C70.3018 76.9729 70.1672 77.0056 69.9921 76.9716C69.851 76.9441 69.7033 76.9441 69.5596 76.9337C69.3244 76.9167 69.0879 76.9036 68.8526 76.8866C68.837 76.8853 68.8134 76.884 68.8069 76.8749C68.6788 76.6684 68.5443 76.4633 68.4332 76.2477C68.4123 76.2072 68.4841 76.1144 68.5233 76.0503C68.9938 75.2872 69.6916 74.7475 70.3658 74.1857C70.4782 74.0916 70.5997 74.0641 70.7186 74.1608C71.1263 74.4967 71.5288 74.8364 71.9339 75.1761C71.9391 75.1827 71.9404 75.1957 71.9496 75.2219Z"
     fill="#556169"
     id="path30"
     style="fill:#000000;fill-opacity:1;stroke:#660000;stroke-opacity:1;stroke-width:0.5;stroke-dasharray:none" />
  <path
     d="M75.9037 71.0444C75.9782 71.3083 75.8149 71.5448 75.5757 71.7709C75.2007 72.1263 74.8414 72.5 74.4807 72.8712C74.3696 72.9861 74.2873 72.9861 74.171 72.8764C73.8692 72.5915 73.5542 72.321 73.2511 72.0375C72.9871 71.7905 72.9793 71.4991 73.2289 71.2364C73.6888 70.7516 74.1527 70.2708 74.6153 69.7886C74.7016 69.6997 74.7865 69.6096 74.8767 69.5233C74.9145 69.4867 74.959 69.4515 75.0073 69.4306C75.2595 69.3195 75.8136 69.6527 75.8345 69.931C75.8606 70.2734 75.8776 70.6184 75.9037 71.0444Z"
     fill="#556169"
     id="path32"
     style="fill:#000000;fill-opacity:1;stroke:#660000;stroke-opacity:1;stroke-width:0.5;stroke-dasharray:none" />
  <path
     d="M40.3217 38.9904C40.2485 38.9525 40.1623 38.9303 40.1035 38.8754C39.7925 38.5853 39.4841 38.2913 39.1823 37.9908C38.9745 37.7843 38.9823 37.7425 39.194 37.5347C39.6056 37.131 40.0199 36.7285 40.4276 36.3208C40.7556 35.9928 41.1332 35.8909 41.5775 36.0242C41.8088 36.0934 42.0414 36.1588 42.274 36.2202C42.4099 36.2555 42.4647 36.3469 42.5196 36.4685C42.6385 36.7311 42.5876 36.9219 42.3837 37.127C41.8597 37.655 41.354 38.2012 40.8483 38.7461C40.7072 38.9016 40.5439 38.98 40.3217 38.9904Z"
     fill="#556169"
     id="path34"
     style="fill:#000000;fill-opacity:1;stroke:#660000;stroke-opacity:1;stroke-width:0.5;stroke-dasharray:none" />
  <path
     d="M35.1496 42.9485C35.1274 42.5787 35.1143 42.2494 35.0843 41.9227C35.0686 41.7424 35.1209 41.5947 35.2358 41.4627C35.6409 41.0002 36.0473 40.5376 36.4524 40.075C36.5138 40.0044 36.5857 39.943 36.6706 40.0227C37.0966 40.4187 37.5461 40.7911 37.8728 41.2811C37.9355 41.3739 37.9277 41.4471 37.8545 41.5255C37.4338 41.9737 37.0169 42.4258 36.5922 42.8701C36.3466 43.1275 36.0865 43.3719 35.8356 43.6241C35.7546 43.7051 35.6749 43.7273 35.586 43.6397C35.5743 43.628 35.5612 43.6188 35.5455 43.6123C35.2136 43.4908 35.0372 43.2804 35.1496 42.9485Z"
     fill="#556169"
     id="path36"
     style="fill:#000000;fill-opacity:1;stroke:#660000;stroke-opacity:1;stroke-width:0.5;stroke-dasharray:none" />
  <path
     d="M75.1603 43.628C75.0571 43.5614 74.9355 43.5117 74.8532 43.4241C74.3279 42.874 73.8105 42.3174 73.293 41.7607C73.0173 41.4641 73.0173 41.4588 73.2656 41.1491C73.5217 40.8303 73.7856 40.5154 74.0444 40.1979C74.1345 40.0868 74.2325 40.0567 74.3475 40.1573C74.5161 40.3076 74.6873 40.4553 74.8519 40.6108C75.1694 40.9113 75.4804 41.2171 75.798 41.5176C75.9443 41.6562 76.0058 41.7881 75.9443 42.0103C75.8241 42.4493 75.7588 42.9028 75.6699 43.351C75.6503 43.4516 75.6137 43.5326 75.4896 43.5431C75.389 43.5509 75.2884 43.5783 75.1877 43.5966C75.1773 43.6097 75.1681 43.6189 75.1603 43.628Z"
     fill="#556169"
     id="path38"
     style="fill:#000000;fill-opacity:1;stroke:#660000;stroke-opacity:1;stroke-width:0.5;stroke-dasharray:none" />
  <path
     d="M70.2233 36.0385C70.2664 36.0634 70.3475 36.0895 70.3997 36.1431C70.8884 36.6383 71.3719 37.1388 71.8593 37.6341C71.9299 37.7059 71.9208 37.7608 71.8528 37.8235C71.4438 38.1986 71.0361 38.5762 70.6271 38.9512C70.5199 39.0492 70.4442 39.0362 70.3344 38.9238C69.9254 38.5096 69.4994 38.111 69.0813 37.7059C68.8957 37.5256 68.7128 37.3413 68.5246 37.1636C68.424 37.0682 68.3913 36.9598 68.4266 36.8265C68.4527 36.7272 68.4723 36.6266 68.4984 36.5286C68.5377 36.3783 68.6213 36.2999 68.7885 36.2764C69.2407 36.2123 69.6889 36.1248 70.1397 36.0477C70.1554 36.0464 70.1711 36.0451 70.2233 36.0385Z"
     fill="#556169"
     id="path40"
     style="fill:#000000;fill-opacity:1;stroke:#660000;stroke-opacity:1;stroke-width:0.5;stroke-dasharray:none" />
  <path
     d="M54.561 79.6203C55.1909 79.6648 55.8037 79.6974 56.316 79.6164C56.0651 79.9078 55.7698 80.2528 55.464 80.6069C55.1438 80.2567 54.8524 79.9392 54.561 79.6203Z"
     fill="#556169"
     id="path42"
     style="fill:#000000;fill-opacity:1;stroke:#660000;stroke-opacity:1;stroke-width:0.5;stroke-dasharray:none" />
  <path
     d="M56.2585 33.4134C55.7345 33.4303 55.2105 33.4473 54.6813 33.4643C54.6865 33.4513 54.6891 33.4225 54.7048 33.4042C54.9243 33.1585 55.1425 32.9129 55.3686 32.6751C55.3974 32.645 55.4967 32.6332 55.5228 32.6568C55.7855 32.892 56.039 33.135 56.2951 33.3768C56.2846 33.3898 56.2716 33.4016 56.2585 33.4134Z"
     fill="#556169"
     id="path44"
     style="fill:#000000;fill-opacity:1;stroke:#660000;stroke-opacity:1;stroke-width:0.5;stroke-dasharray:none" />
  <path
     d="M32.4421 57.4505C32.1703 57.1878 31.922 56.9526 31.6816 56.7083C31.6528 56.6795 31.6463 56.5802 31.6724 56.5515C31.9259 56.2614 32.1912 55.983 32.5401 55.7544C32.3506 56.3189 32.4525 56.869 32.4421 57.4505Z"
     fill="#556169"
     id="path46"
     style="fill:#000000;fill-opacity:1;stroke:#660000;stroke-opacity:1;stroke-width:0.5;stroke-dasharray:none" />
  <path
     d="M78.5184 57.4832C78.5994 56.9069 78.6269 56.3594 78.5093 55.774C78.5798 55.8158 78.6308 55.838 78.6713 55.872C78.8895 56.0562 79.1051 56.2431 79.3208 56.43C79.3796 56.4822 79.4292 56.5371 79.3521 56.6194C79.0973 56.8899 78.8438 57.1617 78.5903 57.4335C78.5772 57.4479 78.5576 57.457 78.5184 57.4832Z"
     fill="#556169"
     id="path48"
     style="fill:#000000;fill-opacity:1;stroke:#660000;stroke-opacity:1;stroke-width:0.5;stroke-dasharray:none" />
  <path
     d="M55.5175 69.5233C53.9259 69.5233 52.333 69.522 50.7414 69.5259C50.5885 69.5259 50.4801 69.4802 50.3716 69.373C48.814 67.8246 47.2512 66.2826 45.6922 64.7355C44.6116 63.664 43.5388 62.5846 42.4568 61.5144C42.2556 61.3158 42.1719 61.1067 42.1719 60.8153C42.1824 58.0085 42.1902 55.2016 42.1654 52.3961C42.1602 51.8434 42.33 51.4435 42.7168 51.0554C45.2127 48.553 47.6902 46.0311 50.173 43.5169C50.2305 43.4594 50.2919 43.4059 50.3468 43.3471C50.4762 43.2072 50.6303 43.1497 50.8224 43.1511C53.8932 43.155 56.964 43.1602 60.0361 43.1511C60.3563 43.1497 60.5915 43.2543 60.8097 43.4738C62.3294 44.9988 63.8531 46.5198 65.3767 48.0421C66.2692 48.9346 67.1643 49.8258 68.0542 50.7222C68.275 50.9443 68.4893 51.173 68.6866 51.4148C68.7637 51.5075 68.8212 51.6447 68.8264 51.7637C68.846 52.2916 68.846 52.8208 68.8474 53.3487C68.8513 55.8158 68.8513 58.2816 68.8565 60.7487C68.8565 60.9538 68.7454 61.095 68.6187 61.2269C67.9771 61.8973 67.3355 62.5676 66.6873 63.2314C64.7168 65.2503 62.7423 67.2653 60.7731 69.2868C60.6124 69.4514 60.453 69.5338 60.2125 69.5325C58.6484 69.5181 57.0829 69.5246 55.5175 69.5233ZM60.1276 56.6874C60.1433 56.6861 60.1577 56.6848 60.1733 56.6835C60.1263 56.3816 60.0675 56.0811 60.0374 55.7779C59.9969 55.3846 59.8532 55.0265 59.6598 54.6933C59.3096 54.0909 58.8522 53.5748 58.3113 53.1357C58.2446 53.0821 58.178 53.0259 58.1035 52.9841C57.8826 52.8613 57.6527 52.7555 57.4371 52.6235C57.1444 52.4432 56.8438 52.3125 56.4897 52.2981C56.244 52.2877 55.9984 52.2367 55.7579 52.1818C55.5253 52.1282 55.3045 52.1308 55.0758 52.2027C54.9086 52.255 54.7269 52.3112 54.5583 52.2981C54.1912 52.2681 53.9154 52.4366 53.6436 52.6365C53.5914 52.6744 53.5378 52.711 53.4868 52.7502C53.1523 53.0129 52.793 53.2494 52.4924 53.546C52.1997 53.8348 51.9593 54.1811 51.7097 54.5117C51.6182 54.6332 51.5464 54.7783 51.498 54.9233C51.3765 55.2957 51.2693 55.6721 51.1661 56.0497C51.1282 56.1882 51.0995 56.332 51.0955 56.4744C51.0838 56.8782 51.1583 57.2676 51.2471 57.6648C51.3543 58.1444 51.5764 58.556 51.826 58.9506C52.0795 59.3492 52.4049 59.7007 52.7119 60.0626C52.8152 60.1842 52.9445 60.2939 53.0831 60.3697C53.5927 60.652 54.0905 60.946 54.6746 61.0845C55.2169 61.2139 55.7514 61.3249 56.2924 61.1812C56.6648 61.0819 57.0673 61.0649 57.4005 60.8219C57.7141 60.5945 58.0891 60.439 58.3635 60.175C59.0103 59.5504 59.631 58.8971 59.8885 57.9915C60.01 57.5642 60.2008 57.1526 60.1276 56.6874Z"
     fill="#556169"
     id="path50"
     style="fill:#000000;fill-opacity:1;stroke:#660000;stroke-opacity:1;stroke-width:0.5;stroke-dasharray:none" />
  <path
     d="M59.2483 56.3711C59.2483 56.6835 59.2693 56.9984 59.2418 57.3081C59.2222 57.5289 59.1412 57.7445 59.0772 57.9601C58.9426 58.4201 58.6355 58.7742 58.3532 59.1466C57.9168 59.7203 57.3275 60.0626 56.6663 60.2782C56.2651 60.4089 55.8391 60.4546 55.4092 60.3867C55.1753 60.3501 54.9375 60.3475 54.7023 60.3201C54.4096 60.2861 54.1521 60.1567 53.8895 60.0287C53.142 59.6693 52.7409 59.0094 52.324 58.3404C51.834 57.555 51.8614 56.7396 52.064 55.8942C52.1385 55.5806 52.2221 55.2696 52.307 54.9586C52.3253 54.8919 52.3528 54.824 52.3933 54.7691C52.7775 54.2595 53.193 53.7904 53.7314 53.4245C54.0515 53.2063 54.39 53.1396 54.748 53.0638C55.0982 52.9893 55.4497 52.9253 55.8025 52.9671C56.239 53.0181 56.6885 53.0625 57.0975 53.2063C57.4176 53.3186 57.6881 53.5748 57.9756 53.7734C58.0945 53.8557 58.1964 53.9629 58.314 54.0491C58.7766 54.3836 58.9622 54.8867 59.1647 55.3885C59.2954 55.7139 59.2902 56.0392 59.2483 56.3711Z"
     fill="#556169"
     id="path52"
     style="fill:#000000;fill-opacity:1;stroke:#660000;stroke-opacity:1;stroke-width:0.5;stroke-dasharray:none" />
</svg>
